<svg id="Layer_1" data-name="Layer 1" xmlns="http://www.w3.org/2000/svg" width="82.24mm" height="14.09mm" viewBox="0 0 233.11 39.95"><defs><style>.cls-1{fill:#1f1f1f;}</style></defs><path class="cls-1" d="M522.62,261h2.84v39.3H523s-17.24-22.09-25.43-32.56c-.27-.34-.56-.66-1.11-1.32V300.3H493.6V261h2.5s17.15,22.06,25.26,32.45c.33.42.69.82,1.26,1.51Z" transform="translate(-348.38 -260.68)"/><path class="cls-1" d="M579.89,293.33l1.49,1.69c-2.67,4.42-11.93,6.82-19.35,5-8-2-14.14-9-14.72-16.95-.73-9.76,3.76-17.51,12.06-20.85,7.73-3.11,17.68-1.34,22.12,4L579.86,268c-4.85-4.31-10.46-5.47-16.64-4.09a16.26,16.26,0,0,0-9.61,6.16,17.6,17.6,0,0,0,1.29,22.74C560,298.19,571.4,300.81,579.89,293.33Z" transform="translate(-348.38 -260.68)"/><path class="cls-1" d="M373.7,297.69v2.58H348.38V261h2.73v36.67Z" transform="translate(-348.38 -260.68)"/><path class="cls-1" d="M418.27,263.51H393V261h25.31Z" transform="translate(-348.38 -260.68)"/><path class="cls-1" d="M418.28,297.84v2.43H393v-2.43Z" transform="translate(-348.38 -260.68)"/><path class="cls-1" d="M393,281.56v-2.44H418.2v2.44Z" transform="translate(-348.38 -260.68)"/><polygon class="cls-1" points="105.25 0.34 87.31 39.59 90.46 39.59 106.76 3.67 123.13 39.59 126.2 39.58 108.31 0.34 105.25 0.34"/></svg>